<svg xmlns="http://www.w3.org/2000/svg" viewBox="0 0 400 300" width="400" height="300" role="img" aria-labelledby="bz2d-dk-t" xmlns:c2pa="http://c2pa.org/manifest"><metadata><c2pa:manifest>AAAWgmp1bWIAAAAeanVtZGMycGEAEQAQgAAAqgA4m3EDYzJwYQAAABZcanVtYgAAAEdqdW1kYzJtYQARABCAAACqADibcQN1cm46YzJwYTo5MjlhZWI2YS1lYTUwLTQ3MzAtYmYwOS0yMWVjZWI2YzkzOWEAAAADl2p1bWIAAAApanVtZGMyYXMAEQAQgAAAqgA4m3EDYzJwYS5hc3NlcnRpb25zAAAAALxqdW1iAAAARGp1bWRjYm9yABEAEIAAAKoAOJtxE2MycGEuaW5ncmVkaWVudC52MwAAAAAYYzJzaGuFy68Ujooau4RL/v5vb2sAAABwY2JvcqNpZGM6Zm9ybWF0bWltYWdlL3N2Zyt4bWxqaW5zdGFuY2VJRHgseG1wOmlpZDpmMTdkY2FhNC03YWIwLTQ0MzQtOGViNy1hOGU1YmY1ZjE0MjRscmVsYXRpb25zaGlwaHBhcmVudE9mAAAB4mp1bWIAAABBanVtZGNib3IAEQAQgAAAqgA4m3ETYzJwYS5hY3Rpb25zLnYyAAAAABhjMnNoWMTpRWZew9vClUE8weYYegAAAZljYm9yomdhY3Rpb25zgqJmYWN0aW9ua2MycGEub3BlbmVkanBhcmFtZXRlcnOha2luZ3JlZGllbnRzgaJjdXJseC1zZWxmI2p1bWJmPWMycGEuYXNzZXJ0aW9ucy9jMnBhLmluZ3JlZGllbnQudjNkaGFzaFggYf3BjLyON11V9VGVUIu3JMkaBzldslBRHeo8Hb9domSkZmFjdGlvbngdY29tLmFudGhyb3BpYy5jbGF1ZGUucHJvdmlkZWRqcGFyYW1ldGVyc6F4H2NvbS5hbnRocm9waWMub3JpZ2luLWNvbmZpZGVuY2VndW5rbm93bmtkZXNjcmlwdGlvbnhmQ2xhdWRlIHByb3ZpZGVkIHRoaXMgZmlsZSBhdCB0aGUgcmVxdWVzdCBvZiBhIHVzZXIgYW5kIG1heSBoYXZlIGNyZWF0ZWQgb3IgbW9kaWZpZWQgdGhlIGZpbGUgY29udGVudHMubXNvZnR3YXJlQWdlbnShZG5hbWVmQ2xhdWRlcmFsbEFjdGlvbnNJbmNsdWRlZPUAAADIanVtYgAAAEBqdW1kY2JvcgARABCAAACqADibcRNjMnBhLmhhc2guZGF0YQAAAAAYYzJzaNx1JJVSZPB5y6gI6anj+HYAAACAY2JvcqVjYWxnZnNoYTI1NmNwYWRNAAAAAAAAAAAAAAAAAGRoYXNoWCCPIgOOEcAPLjmWGiviTSnhVk7RdCyNfFTmdUevk6G8tGRuYW1lbmp1bWJmIG1hbmlmZXN0amV4Y2x1c2lvbnOBomVzdGFydBi9Zmxlbmd0aBkeBAAAAj5qdW1iAAAAJ2p1bWRjMmNsABEAEIAAAKoAOJtxA2MycGEuY2xhaW0udjIAAAACD2Nib3KlY2FsZ2ZzaGEyNTZpc2lnbmF0dXJleE1zZWxmI2p1bWJmPS9jMnBhL3VybjpjMnBhOjkyOWFlYjZhLWVhNTAtNDczMC1iZjA5LTIxZWNlYjZjOTM5YS9jMnBhLnNpZ25hdHVyZWppbnN0YW5jZUlEeCx4bXA6aWlkOjM2ODVhOGExLTQ0MWUtNDJmNy1hMWUyLTdmOTg1ZmQyOWJhMXJjcmVhdGVkX2Fzc2VydGlvbnODomN1cmx4LXNlbGYjanVtYmY9YzJwYS5hc3NlcnRpb25zL2MycGEuaW5ncmVkaWVudC52M2RoYXNoWCBh/cGMvI43XVX1UZVQi7ckyRoHOV2yUFEd6jwdv12iZKJjdXJseCpzZWxmI2p1bWJmPWMycGEuYXNzZXJ0aW9ucy9jMnBhLmFjdGlvbnMudjJkaGFzaFggVKtHPLLUhPCrZoLLOKB5YAQr4gfmVN+MdxNhgFDcbzWiY3VybHgpc2VsZiNqdW1iZj1jMnBhLmFzc2VydGlvbnMvYzJwYS5oYXNoLmRhdGFkaGFzaFggZGzv9eNwFbkJqb61dHTXDN4iezPXpCLQXgJq5jQifcZ0Y2xhaW1fZ2VuZXJhdG9yX2luZm+jZG5hbWVvQW50aHJvcGljIEZpbGVzZ3ZlcnNpb25lMS4wLjBrc3BlY1ZlcnNpb25lMi40LjAAABA4anVtYgAAAChqdW1kYzJjcwARABCAAACqADibcQNjMnBhLnNpZ25hdHVyZQAAABAIY2JvctKEWQISogEmGCFZAgowggIGMIIBjaADAgECAhRA5aAK7sI50L64g/oGQgU9Z1UTADAKBggqhkjOPQQDAzBJMRcwFQYDVQQKEw5BbnRocm9waWMsIFBCQzEuMCwGA1UEAxMlQW50aHJvcGljIENvbnRlbnQgQ3JlZGVudGlhbHMgUm9vdCBDQTAeFw0yNjA4MDcxODQzNTZaFw0yODA4MDYxOTQzNTZaMEQxFzAVBgNVBAoTDkFudGhyb3BpYywgUEJDMSkwJwYDVQQDEyBBbnRocm9waWMgQ2xhdWRlIENvbnRlbnQgU2lnbmluZzBZMBMGByqGSM49AgEGCCqGSM49AwEHA0IABJh6CmvLUBgFFNU0vUKlOVtE6djd17L5SuwX0LemFisBM3dkd/3cyjxFA3Qo5S46fX0/ihY0VZ7mfb9KF703t5OjWDBWMA4GA1UdDwEB/wQEAwIHgDAVBgNVHSUEDjAMBgorBgEEAYPoXgIBMAwGA1UdEwEB/wQCMAAwHwYDVR0jBBgwFoAUzlHiBIFOZFsj+OPEz5o+nMHXXMIwCgYIKoZIzj0EAwMDZwAwZAIwMXMdFJ4BetLLVY7ORuE9noqbbAZOZn/aArXyTwFAZfKrPzxF2vPoJNf1+UCdg1XGAjBwX1zd9WGqYkqmL5SFqw1QySjr1zJfpJM9+1rdDwSPLMOPOjKuiXjoU/pUUeG9RwmhY3BhZFkNngAAAAAAAAAAAAAAAAAAAAAAAAAAAAAAAAAAAAAAAAAAAAAAAAAAAAAAAAAAAAAAAAAAAAAAAAAAAAAAAAAAAAAAAAAAAAAAAAAAAAAAAAAAAAAAAAAAAAAAAAAAAAAAAAAAAAAAAAAAAAAAAAAAAAAAAAAAAAAAAAAAAAAAAAAAAAAAAAAAAAAAAAAAAAAAAAAAAAAAAAAAAAAAAAAAAAAAAAAAAAAAAAAAAAAAAAAAAAAAAAAAAAAAAAAAAAAAAAAAAAAAAAAAAAAAAAAAAAAAAAAAAAAAAAAAAAAAAAAAAAAAAAAAAAAAAAAAAAAAAAAAAAAAAAAAAAAAAAAAAAAAAAAAAAAAAAAAAAAAAAAAAAAAAAAAAAAAAAAAAAAAAAAAAAAAAAAAAAAAAAAAAAAAAAAAAAAAAAAAAAAAAAAAAAAAAAAAAAAAAAAAAAAAAAAAAAAAAAAAAAAAAAAAAAAAAAAAAAAAAAAAAAAAAAAAAAAAAAAAAAAAAAAAAAAAAAAAAAAAAAAAAAAAAAAAAAAAAAAAAAAAAAAAAAAAAAAAAAAAAAAAAAAAAAAAAAAAAAAAAAAAAAAAAAAAAAAAAAAAAAAAAAAAAAAAAAAAAAAAAAAAAAAAAAAAAAAAAAAAAAAAAAAAAAAAAAAAAAAAAAAAAAAAAAAAAAAAAAAAAAAAAAAAAAAAAAAAAAAAAAAAAAAAAAAAAAAAAAAAAAAAAAAAAAAAAAAAAAAAAAAAAAAAAAAAAAAAAAAAAAAAAAAAAAAAAAAAAAAAAAAAAAAAAAAAAAAAAAAAAAAAAAAAAAAAAAAAAAAAAAAAAAAAAAAAAAAAAAAAAAAAAAAAAAAAAAAAAAAAAAAAAAAAAAAAAAAAAAAAAAAAAAAAAAAAAAAAAAAAAAAAAAAAAAAAAAAAAAAAAAAAAAAAAAAAAAAAAAAAAAAAAAAAAAAAAAAAAAAAAAAAAAAAAAAAAAAAAAAAAAAAAAAAAAAAAAAAAAAAAAAAAAAAAAAAAAAAAAAAAAAAAAAAAAAAAAAAAAAAAAAAAAAAAAAAAAAAAAAAAAAAAAAAAAAAAAAAAAAAAAAAAAAAAAAAAAAAAAAAAAAAAAAAAAAAAAAAAAAAAAAAAAAAAAAAAAAAAAAAAAAAAAAAAAAAAAAAAAAAAAAAAAAAAAAAAAAAAAAAAAAAAAAAAAAAAAAAAAAAAAAAAAAAAAAAAAAAAAAAAAAAAAAAAAAAAAAAAAAAAAAAAAAAAAAAAAAAAAAAAAAAAAAAAAAAAAAAAAAAAAAAAAAAAAAAAAAAAAAAAAAAAAAAAAAAAAAAAAAAAAAAAAAAAAAAAAAAAAAAAAAAAAAAAAAAAAAAAAAAAAAAAAAAAAAAAAAAAAAAAAAAAAAAAAAAAAAAAAAAAAAAAAAAAAAAAAAAAAAAAAAAAAAAAAAAAAAAAAAAAAAAAAAAAAAAAAAAAAAAAAAAAAAAAAAAAAAAAAAAAAAAAAAAAAAAAAAAAAAAAAAAAAAAAAAAAAAAAAAAAAAAAAAAAAAAAAAAAAAAAAAAAAAAAAAAAAAAAAAAAAAAAAAAAAAAAAAAAAAAAAAAAAAAAAAAAAAAAAAAAAAAAAAAAAAAAAAAAAAAAAAAAAAAAAAAAAAAAAAAAAAAAAAAAAAAAAAAAAAAAAAAAAAAAAAAAAAAAAAAAAAAAAAAAAAAAAAAAAAAAAAAAAAAAAAAAAAAAAAAAAAAAAAAAAAAAAAAAAAAAAAAAAAAAAAAAAAAAAAAAAAAAAAAAAAAAAAAAAAAAAAAAAAAAAAAAAAAAAAAAAAAAAAAAAAAAAAAAAAAAAAAAAAAAAAAAAAAAAAAAAAAAAAAAAAAAAAAAAAAAAAAAAAAAAAAAAAAAAAAAAAAAAAAAAAAAAAAAAAAAAAAAAAAAAAAAAAAAAAAAAAAAAAAAAAAAAAAAAAAAAAAAAAAAAAAAAAAAAAAAAAAAAAAAAAAAAAAAAAAAAAAAAAAAAAAAAAAAAAAAAAAAAAAAAAAAAAAAAAAAAAAAAAAAAAAAAAAAAAAAAAAAAAAAAAAAAAAAAAAAAAAAAAAAAAAAAAAAAAAAAAAAAAAAAAAAAAAAAAAAAAAAAAAAAAAAAAAAAAAAAAAAAAAAAAAAAAAAAAAAAAAAAAAAAAAAAAAAAAAAAAAAAAAAAAAAAAAAAAAAAAAAAAAAAAAAAAAAAAAAAAAAAAAAAAAAAAAAAAAAAAAAAAAAAAAAAAAAAAAAAAAAAAAAAAAAAAAAAAAAAAAAAAAAAAAAAAAAAAAAAAAAAAAAAAAAAAAAAAAAAAAAAAAAAAAAAAAAAAAAAAAAAAAAAAAAAAAAAAAAAAAAAAAAAAAAAAAAAAAAAAAAAAAAAAAAAAAAAAAAAAAAAAAAAAAAAAAAAAAAAAAAAAAAAAAAAAAAAAAAAAAAAAAAAAAAAAAAAAAAAAAAAAAAAAAAAAAAAAAAAAAAAAAAAAAAAAAAAAAAAAAAAAAAAAAAAAAAAAAAAAAAAAAAAAAAAAAAAAAAAAAAAAAAAAAAAAAAAAAAAAAAAAAAAAAAAAAAAAAAAAAAAAAAAAAAAAAAAAAAAAAAAAAAAAAAAAAAAAAAAAAAAAAAAAAAAAAAAAAAAAAAAAAAAAAAAAAAAAAAAAAAAAAAAAAAAAAAAAAAAAAAAAAAAAAAAAAAAAAAAAAAAAAAAAAAAAAAAAAAAAAAAAAAAAAAAAAAAAAAAAAAAAAAAAAAAAAAAAAAAAAAAAAAAAAAAAAAAAAAAAAAAAAAAAAAAAAAAAAAAAAAAAAAAAAAAAAAAAAAAAAAAAAAAAAAAAAAAAAAAAAAAAAAAAAAAAAAAAAAAAAAAAAAAAAAAAAAAAAAAAAAAAAAAAAAAAAAAAAAAAAAAAAAAAAAAAAAAAAAAAAAAAAAAAAAAAAAAAAAAAAAAAAAAAAAAAAAAAAAAAAAAAAAAAAAAAAAAAAAAAAAAAAAAAAAAAAAAAAAAAAAAAAAAAAAAAAAAAAAAAAAAAAAAAAAAAAAAAAAAAAAAAAAAAAAAAAAAAAAAAAAAAAAAAAAAAAAAAAAAAAAAAAAAAAAAAAAAAAAAAAAAAAAAAAAAAAAAAAAAAAAAAAAAAAAAAAAAAAAAAAAAAAAAAAAAAAAAAAAAAAAAAAAAAAAAAAAAAAAAAAAAAAAAAAAAAAAAAAAAAAAAAAAAAAAAAAAAAAAAAAAAAAAAAAAAAAAAAAAAAAAAAAAAAAAAAAAAAAAAAAAAAAAAAAAAAAAAAAAAAAAAAAAAAAAAAAAAAAAAAAAAAAAAAAAAAAAAAAAAAAAAAAAAAAAAAAAAAAAAAAAAAAAAAAAAAAAAAAAAAAAAAAAAAAAAAAAAAAAAAAAAAAAAAAAAAAAAAAAAAAAAAAAAAAAAAAAAAAAAAAAAAAAAAAAAAAAAAAAAAAAAAAAAAAAAAAAAAAAAAAAAAAAAAAAAAAAAAAAAAAAAAAAAAAAAAAAAAAAAAAAAAAAAAAAAAAAAAAAAAAAAAAAAAAAAAAAAAAAAAAAAAAAAAAAAAAAAAAAAAAAAAAAAAAAAAAAAAAAAAAAAAAAAAAAAAAAAAAAAAAAAAAAAAAAAAAAAAAAAAAAAAAAAAAAAAAAAAAAAAAAAAAAAAAAAAAAAAAAAAAAAAAAAAAAAAAAAAAAAAAAAAAAAAAAAAAAAAAAAAAAAAAAAAAAAAAAAAAAAAAAAAAAAAAAAAAAAAAAAAAAAAAAAAAAAAAAAAAAAAAAAAAAAAAAAAAAAAAAAAAAAAAAAAAAAAAAAAAAAAAAAAAAAAAAAAAAAAAAAAAAAAAAAAAAAAAAAAAAAAAAAAAAAAAAAAAAAAAAAAAAAAAAAAAAAAAAAAAAAAAAAAAAAAAAAAAAAAAAAAAAAAAAAAAAAAAAAAAAAAAAAAAAAAAAAAAAAAAAAAAAAAAAAAAAAAAAAAAAAAAAAAAAAAAAAAAAAAAAAAAAAAAAAAAAAAAAAAAAAAAAAAAAAAAAAAAAAAAAAAAAAAAAAAAAAAAAAAAAAAAAAAAAAAAAAAAAAAAAAAAAAAAAAAAAAAAAAAAAAAAAAAAAAAAAAAAAAAAAAAAAAAAAAAAAAAAAAAAAAAAAAAAAAAAAAAAAAAAAAAAAAAAAAAAAAAAAAAAAAAAAAAAAAAAAAAAAAAAAAAAAAAAAAAAAAAAAAAAAAAAAAAAAAAAAAAAAAAAAAAAAAAAAAAAAAAAAAAAAAAAAAAAAAAAAAAAAAAAAAAAAAAAAAAAAAAAAAAAAAAAAAAAAAAAAAAAAAAAAAAAAAAAAAAAAAAAAAAAAAAAAAAAAAAAAAAAAAAAAAAAAAAAAAAAAAAAAAAAAAAAAAAAAAAAAAAAAAAAAAAAAAAAAAAAAAAAAAAAAAAAAAAAAAAAAAAAAAAAAAAAAAAAAAAAAAAAAAAAAAAAAAAAAAAAAAAAAAAAAAAAAAAAAAAAAAAAAAAAAAAAAAAAAAAAAAAAAAAAAAAAAAAAAAAAAAAAAAAAAAAAAAAAAAAAAAAAAAAAAAAAAAAAAAAAAAAAAAAAAAAAAAAAAAAAAAAAAAAAAAAAAAAAAAAAAAAAAAAAAAAAAAAAAAAAAAAAAAAAAAAAAAAAAAAAAAAAAAAAAAAAAAAAAAAAAAAAAAAAAAAAAAAAAPZYQLSxZpNNKL/m8vRkMEofjiVPu2fShVGZsghJ1gffxCB6FQQzRzhOS1blohl0SVgb1NrUHTcf4zcuJ6rls1TtUoE=</c2pa:manifest></metadata><title id="bz2d-dk-t">Beta Zeta Association of Theta Xi</title><defs><symbol id="bz2d-elev" viewBox="0 0 600 140"><clipPath id="bz2d-wallclip"><polygon points="40,57 300,26 560,57 560,128 40,128"></polygon></clipPath><polygon points="40,57 300,26 560,57 560,128 40,128" style="fill:#FFFFFF;stroke:#03244D;stroke-width:1.6;stroke-linejoin:round;"></polygon><path d="M40 33H560M40 38H560M40 43H560M40 48H560M40 53H560M40 58H560M40 63H560M40 68H560M40 73H560M40 78H560M40 83H560M40 88H560M40 93H560M40 98H560M40 103H560M40 108H560M40 113H560M40 118H560M40 123H560" clip-path="url(#bz2d-wallclip)" style="fill:none;stroke:#03244D;stroke-width:0.6;opacity:0.26;"></path><polygon points="14,63 300,27 586,63 586,69 300,34 14,69" clip-path="url(#bz2d-wallclip)" style="fill:#03244D;opacity:0.35;"></polygon><polygon points="4,56 300,18 596,56 596,64 300,26 4,64" style="fill:#03244D;stroke:#03244D;stroke-width:1;stroke-linejoin:round;"></polygon><polygon points="181,41 262,31 262,128 181,128" style="fill:#03244D;"></polygon><path d="M201.5 39V128M221.5 36V128M242 34V128M181 50H262" style="fill:none;stroke:#FFFFFF;stroke-width:1.4;"></path><rect x="186" y="86" width="12" height="42" style="fill:none;stroke:#FFFFFF;stroke-width:1.2;"></rect><rect x="318" y="44" width="24" height="71" style="fill:#03244D;"></rect><rect x="322" y="49" width="5" height="5" style="fill:#FFFFFF;"></rect><rect x="333" y="49" width="5" height="5" style="fill:#FFFFFF;"></rect><rect x="321" y="62" width="18" height="48" style="fill:#FFFFFF;"></rect><path d="M330 62V110M321 78H339M321 94H339" style="fill:none;stroke:#03244D;stroke-width:1.2;"></path><rect x="404" y="44" width="27" height="71" style="fill:#03244D;"></rect><rect x="409" y="49" width="5" height="5" style="fill:#FFFFFF;"></rect><rect x="420" y="49" width="5" height="5" style="fill:#FFFFFF;"></rect><rect x="407" y="60" width="21" height="50" style="fill:#FFFFFF;"></rect><path d="M417.5 60V110M407 76H428M407 93H428" style="fill:none;stroke:#03244D;stroke-width:1.2;"></path><path style="fill:#DD550C;" d="M363.48 73.28L363.48 73.28Q360.29 73.28 358.19 71.99Q356.09 70.70 355.04 68.38Q353.99 66.06 353.99 62.95L353.99 62.95Q353.99 59.84 355.04 57.54Q356.09 55.25 358.20 53.97Q360.32 52.70 363.51 52.70L363.51 52.70Q366.56 52.70 368.66 53.97Q370.76 55.25 371.85 57.56Q372.94 59.87 372.94 62.98L372.94 62.98Q372.94 66.08 371.85 68.39Q370.76 70.70 368.65 71.99Q366.53 73.28 363.48 73.28ZM363.48 71.46L363.48 71.46Q365.24 71.46 366.31 70.48Q367.37 69.50 367.83 67.61Q368.30 65.72 368.30 62.98L368.30 62.98Q368.30 60.23 367.83 58.34Q367.37 56.45 366.31 55.49Q365.24 54.52 363.51 54.52L363.51 54.52Q360.88 54.52 359.74 56.68Q358.61 58.83 358.61 62.98L358.61 62.98Q358.61 65.72 359.10 67.61Q359.59 69.50 360.67 70.48Q361.74 71.46 363.48 71.46ZM361.18 65.47L359.73 65.47L359.73 60.12L361.18 60.12L361.32 60.65Q361.41 60.99 361.58 61.24Q361.74 61.49 362.11 61.63Q362.47 61.77 363.17 61.77L363.17 61.77L363.62 61.77Q364.32 61.77 364.73 61.63Q365.13 61.49 365.33 61.23Q365.52 60.96 365.61 60.65L365.61 60.65L365.75 60.12L367.20 60.12L367.20 65.47L365.75 65.47L365.61 64.94Q365.52 64.63 365.33 64.36Q365.13 64.10 364.74 63.96Q364.35 63.82 363.68 63.82L363.68 63.82L363.17 63.82Q362.47 63.82 362.11 63.96Q361.74 64.10 361.58 64.35Q361.41 64.60 361.32 64.94L361.32 64.94L361.18 65.47ZM392.52 73L375.52 73L375.38 66.64L377.09 66.64L377.20 67.48Q377.28 68.04 377.51 68.52Q377.73 69.00 378.22 69.29Q378.71 69.58 379.55 69.58L379.55 69.58L388.46 69.58Q389.30 69.58 389.79 69.29Q390.28 69.00 390.51 68.52Q390.75 68.04 390.81 67.48L390.81 67.48L390.92 66.64L392.66 66.64L392.52 73ZM380.64 65.47L379.19 65.47L379.19 60.12L380.64 60.12L380.78 60.65Q380.90 61.04 381.04 61.37Q381.18 61.69 381.58 61.87Q381.99 62.05 382.83 62.05L382.83 62.05L385.21 62.05Q386.33 62.05 386.75 61.65Q387.17 61.24 387.31 60.65L387.31 60.65L387.45 60.12L388.90 60.12L388.90 65.47L387.45 65.47L387.31 64.94Q387.17 64.35 386.75 63.94Q386.33 63.54 385.21 63.54L385.21 63.54L382.83 63.54Q381.99 63.54 381.58 63.72Q381.18 63.90 381.04 64.21Q380.90 64.52 380.78 64.94L380.78 64.94L380.64 65.47ZM377.93 59.03L376.22 59.03L376.36 53.01L391.68 53.01L391.82 59.03L390.08 59.03L389.97 58.19Q389.91 57.63 389.67 57.15Q389.44 56.68 388.95 56.38Q388.46 56.09 387.62 56.09L387.62 56.09L380.39 56.09Q379.55 56.09 379.06 56.38Q378.57 56.68 378.35 57.15Q378.12 57.63 378.04 58.19L378.04 58.19L377.93 59.03Z"></path><path style="fill:#DD550C;" d="M92.84 96.07L91.39 96.07L91.39 95.27L95.25 95.27L95.25 96.07L93.81 96.07L93.81 100L92.84 100L92.84 96.07ZM98.49 100L97.52 100L97.52 95.27L98.49 95.27L98.49 97.18L100.55 97.18L100.55 95.27L101.52 95.27L101.52 100L100.55 100L100.55 97.98L98.49 97.98L98.49 100ZM107.15 100L103.97 100L103.97 95.27L107.14 95.27L107.14 96.07L104.94 96.07L104.94 97.22L106.97 97.22L106.97 98.01L104.94 98.01L104.94 99.20L107.15 99.20L107.15 100ZM110.78 96.07L109.33 96.07L109.33 95.27L113.19 95.27L113.19 96.07L111.75 96.07L111.75 100L110.78 100L110.78 96.07ZM116.26 100L115.19 100L116.80 95.27L118.07 95.27L119.73 100L118.65 100L118.29 98.90L116.61 98.90L116.26 100ZM116.85 98.14L118.04 98.14L117.90 97.72Q117.76 97.28 117.62 96.75L117.62 96.75Q117.53 96.41 117.43 96.03L117.43 96.03Q117.33 96.42 117.25 96.76L117.25 96.76Q117.12 97.29 116.99 97.72L116.99 97.72L116.85 98.14ZM125.91 100L124.79 100L126.48 97.58L124.94 95.27L126.06 95.27L126.58 96.06Q126.73 96.29 126.82 96.47Q126.91 96.65 126.99 96.81L126.99 96.81Q127.01 96.86 127.04 96.91L127.04 96.91Q127.06 96.86 127.08 96.82L127.08 96.82Q127.16 96.65 127.26 96.47Q127.35 96.29 127.50 96.06L127.50 96.06L128.02 95.27L129.12 95.27L127.59 97.55L129.26 100L128.11 100L127.46 99.01Q127.33 98.81 127.24 98.67Q127.16 98.53 127.10 98.40L127.10 98.40Q127.07 98.34 127.02 98.26L127.02 98.26Q126.99 98.34 126.95 98.40L126.95 98.40Q126.88 98.53 126.80 98.67Q126.72 98.81 126.59 99.01L126.59 99.01L125.91 100ZM131.45 95.27L132.42 95.27L132.42 100L131.45 100L131.45 95.27Z"></path><rect x="284" y="48" width="3" height="8" style="fill:#03244D;"></rect><rect x="472" y="48" width="3" height="8" style="fill:#03244D;"></rect><circle cx="292" cy="98" r="2.6" style="fill:none;stroke:#03244D;stroke-width:1;"></circle><path d="M4 128.5H596" style="fill:none;stroke:#03244D;stroke-width:2.4;"></path></symbol><symbol id="bz2d-stamp" viewBox="0 0 400 300"><rect x="0" y="0" width="400" height="300" style="fill:#FFFFFF;"></rect><rect x="0" y="0" width="400" height="300" style="fill:none;stroke:#03244D;stroke-width:12;stroke-dasharray:0 14;stroke-linecap:round;"></rect><rect x="22" y="22" width="356" height="256" style="fill:none;stroke:#03244D;stroke-width:2;"></rect><rect x="28" y="28" width="344" height="244" style="fill:none;stroke:#03244D;stroke-width:0.8;"></rect><path style="fill:#03244D;" d="M56.67 50.23L56.67 50.23Q59.18 50.23 61.14 51.00Q63.10 51.77 64.20 53.14Q65.30 54.50 65.30 56.39L65.30 56.39Q65.30 58.77 63.58 60.48L63.58 60.48Q61.95 62.11 59.22 63.52L59.22 63.52Q59.62 63.87 60.02 64.18L60.02 64.18Q61.78 65.63 63.34 67.17Q64.90 68.71 65.89 70.45Q66.88 72.19 66.88 74.30L66.88 74.30Q66.88 76.76 65.47 78.61Q64.06 80.46 61.64 81.54Q59.22 82.62 56.10 82.62L56.10 82.62Q53.37 82.62 51.04 81.78Q48.71 80.94 47.30 79.25Q45.89 77.56 45.89 75.09L45.89 75.09Q45.89 72.98 46.90 71.33Q47.92 69.68 49.68 68.45L49.68 68.45Q51.17 67.35 53.02 66.56L53.02 66.56Q51.88 65.54 50.82 64.49L50.82 64.49Q49.28 63.04 48.31 61.30Q47.34 59.56 47.34 57.40L47.34 57.40Q47.34 54.98 48.64 53.40Q49.94 51.82 52.07 51.02Q54.21 50.23 56.67 50.23ZM53.72 67.13L53.72 67.13Q52.40 68.54 51.92 70.34L51.92 70.34Q51.35 72.28 51.35 74.30Q51.35 76.32 51.81 78.04Q52.27 79.76 53.37 80.79Q54.47 81.82 56.32 81.82L56.32 81.82Q58.43 81.82 59.60 80.50Q60.76 79.18 60.76 77.07L60.76 77.07Q60.76 75.05 59.80 73.40Q58.83 71.75 57.31 70.27Q55.79 68.80 54.08 67.39L54.08 67.39Q53.90 67.26 53.72 67.13ZM59.49 61.19L59.49 61.19Q59.88 60.09 60.04 58.90Q60.19 57.71 60.19 56.74L60.19 56.74Q60.19 54.06 59.16 52.54Q58.12 51.02 56.32 51.02L56.32 51.02Q54.82 51.02 53.99 52.04Q53.15 53.05 53.15 54.68L53.15 54.68Q53.15 56.57 54.14 58.20Q55.13 59.82 56.72 61.28L56.72 61.28Q57.60 62.11 58.56 62.95L58.56 62.95Q59.14 62.16 59.49 61.19ZM79.51 58.64L79.51 58.64Q81.66 58.64 83.38 59.23Q85.10 59.82 86.06 60.95Q87.03 62.07 87.03 63.70L87.03 63.70Q87.03 65.37 85.95 66.82Q84.88 68.27 82.87 69.35Q80.87 70.43 78.10 70.96L78.10 70.96Q81.09 70.82 83.47 71.57Q85.84 72.32 87.23 73.84Q88.62 75.36 88.62 77.64L88.62 77.64Q88.62 79.67 87.54 81.38Q86.46 83.10 84.57 84.44Q82.68 85.78 80.28 86.73Q77.88 87.68 75.24 88.16Q72.60 88.64 69.96 88.64L69.96 88.64L69.96 87.76Q72.03 87.72 74.16 87.04Q76.30 86.36 78.08 85.10Q79.86 83.85 80.96 81.98Q82.06 80.11 82.06 77.69L82.06 77.69Q82.06 75.09 80.83 73.42Q79.60 71.75 77.44 71.57L77.44 71.57Q76.78 71.88 76.25 72.08Q75.72 72.28 75.20 72.28L75.20 72.28Q74.80 72.28 74.58 72.14Q74.36 72.01 74.36 71.66L74.36 71.66Q74.36 71.13 74.80 70.91Q75.24 70.69 75.77 70.69L75.77 70.69Q76.12 70.69 76.49 70.76Q76.87 70.82 77.31 70.87L77.31 70.87Q79.20 69.55 79.95 68.03Q80.70 66.51 80.70 64.97L80.70 64.97Q80.70 62.99 79.66 62.05Q78.63 61.10 76.78 61.10L76.78 61.10Q75.06 61.10 73.57 61.96Q72.07 62.82 71.06 64.53L71.06 64.53L70.27 64.14Q71.06 62.68 72.25 61.43Q73.44 60.18 75.20 59.41Q76.96 58.64 79.51 58.64ZM106.17 57.58L107.10 57.58Q107.10 60.48 107.14 62.09Q107.18 63.70 107.27 64.97L107.27 64.97Q106.92 64.88 105.93 64.84Q104.94 64.80 103.66 64.77Q102.39 64.75 101.16 64.75L101.16 64.75L94.38 64.75L93.68 72.28Q94.73 71.53 96.38 71.02Q98.03 70.52 100.32 70.52L100.32 70.52Q103.27 70.52 105.16 71.44Q107.05 72.36 107.98 73.95Q108.90 75.53 108.90 77.47L108.90 77.47Q108.90 80.02 107.38 82.04Q105.86 84.07 103.31 85.52Q100.76 86.97 97.68 87.74Q94.60 88.51 91.48 88.51L91.48 88.51L91.48 87.72Q93.50 87.72 95.46 87.06Q97.42 86.40 98.96 85.12Q100.50 83.85 101.42 82Q102.34 80.15 102.34 77.73L102.34 77.73Q102.34 75.00 101.07 73.51Q99.79 72.01 97.28 72.01L97.28 72.01Q96.01 72.01 95.11 72.34Q94.20 72.67 93.32 73.29L93.32 73.29L92.71 72.89L94.12 59.12Q94.60 59.21 95.24 59.25Q95.88 59.30 96.49 59.30L96.49 59.30L103.75 59.30Q105.03 59.30 105.53 58.90Q106.04 58.50 106.17 57.58L106.17 57.58Z"></path><path style="fill:#03244D;" d="M47.70 100L46.21 100L44.24 92.72L45.65 92.72L46.59 96.60Q46.69 97.02 46.78 97.48Q46.86 97.94 46.94 98.41L46.94 98.41Q46.97 98.57 46.99 98.73L46.99 98.73Q47.02 98.57 47.05 98.41L47.05 98.41Q47.13 97.94 47.23 97.48Q47.32 97.02 47.42 96.60L47.42 96.60L48.41 92.72L49.79 92.72L50.77 96.60Q50.88 97.02 50.97 97.48Q51.06 97.94 51.15 98.41L51.15 98.41Q51.17 98.56 51.20 98.72L51.20 98.72Q51.23 98.56 51.26 98.41L51.26 98.41Q51.33 97.94 51.42 97.48Q51.51 97.02 51.61 96.60L51.61 96.60L52.55 92.72L53.96 92.72L51.99 100L50.49 100L49.43 95.98Q49.29 95.42 49.18 94.76L49.18 94.76Q49.14 94.52 49.09 94.26L49.09 94.26Q49.05 94.50 49.02 94.72L49.02 94.72Q48.92 95.37 48.76 95.98L48.76 95.98L47.70 100ZM64.73 100L63.45 100L63.45 92.72L65.42 92.72L66.80 96.48Q66.87 96.69 66.96 97.02Q67.05 97.35 67.15 97.73Q67.24 98.11 67.33 98.47L67.33 98.47Q67.33 98.50 67.34 98.53L67.34 98.53Q67.34 98.51 67.35 98.48L67.35 98.48Q67.44 98.13 67.53 97.74Q67.63 97.36 67.72 97.03Q67.81 96.69 67.88 96.48L67.88 96.48L69.24 92.72L71.21 92.72L71.21 100L69.91 100L69.91 96.33Q69.91 96.09 69.92 95.76Q69.92 95.43 69.93 95.05Q69.94 94.67 69.95 94.28L69.95 94.28Q69.96 94.09 69.96 93.91L69.96 93.91Q69.90 94.12 69.84 94.33L69.84 94.33Q69.73 94.73 69.61 95.11Q69.50 95.49 69.40 95.81Q69.30 96.12 69.23 96.33L69.23 96.33L67.89 100L66.78 100L65.42 96.33Q65.34 96.12 65.24 95.81Q65.14 95.50 65.03 95.13Q64.91 94.75 64.80 94.34L64.80 94.34Q64.74 94.14 64.69 93.95L64.69 93.95Q64.69 94.09 64.69 94.25L64.69 94.25Q64.70 94.63 64.71 95.02Q64.72 95.41 64.72 95.74Q64.73 96.08 64.73 96.33L64.73 96.33L64.73 100ZM76.61 100L75.19 100L77.73 92.72L79.38 92.72L81.98 100L80.55 100L79.93 98.20L77.21 98.20L76.61 100ZM77.56 97.15L79.57 97.15L79.25 96.22Q79.06 95.63 78.86 94.89L78.86 94.89Q78.71 94.37 78.54 93.74L78.54 93.74Q78.38 94.38 78.24 94.91L78.24 94.91Q78.04 95.65 77.86 96.22L77.86 96.22L77.56 97.15ZM89.09 100.10L89.09 100.10Q88.08 100.10 87.33 99.64Q86.57 99.19 86.15 98.35Q85.72 97.52 85.72 96.37L85.72 96.37Q85.72 95.20 86.16 94.36Q86.60 93.52 87.35 93.07Q88.10 92.63 89.05 92.63L89.05 92.63Q89.65 92.63 90.17 92.80Q90.69 92.98 91.10 93.30Q91.51 93.63 91.77 94.07Q92.03 94.52 92.11 95.05L92.11 95.05L90.78 95.05Q90.69 94.76 90.54 94.53Q90.38 94.30 90.17 94.13Q89.95 93.96 89.67 93.88Q89.40 93.79 89.07 93.79L89.07 93.79Q88.48 93.79 88.02 94.09Q87.56 94.39 87.29 94.96Q87.03 95.53 87.03 96.36L87.03 96.36Q87.03 97.18 87.29 97.76Q87.56 98.33 88.02 98.63Q88.49 98.93 89.10 98.93L89.10 98.93Q89.65 98.93 90.06 98.72Q90.47 98.50 90.69 98.11L90.69 98.11Q90.90 97.73 90.91 97.22L90.91 97.22L89.23 97.22L89.23 96.20L92.18 96.20L92.18 97.07Q92.18 98.00 91.78 98.68Q91.38 99.37 90.69 99.73Q89.99 100.10 89.09 100.10ZM97.77 100L96.44 100L96.44 92.72L97.92 92.72L100.43 96.73Q100.59 96.98 100.76 97.30Q100.94 97.61 101.13 98.00L101.13 98.00Q101.23 98.20 101.32 98.42L101.32 98.42Q101.31 98.22 101.30 98.02L101.30 98.02Q101.27 97.59 101.26 97.20Q101.25 96.81 101.25 96.54L101.25 96.54L101.25 92.72L102.57 92.72L102.57 100L101.09 100L98.82 96.39Q98.60 96.04 98.41 95.71Q98.22 95.37 98.00 94.95L98.00 94.95Q97.86 94.67 97.68 94.32L97.68 94.32Q97.70 94.63 97.71 94.93L97.71 94.93Q97.74 95.41 97.75 95.78Q97.77 96.16 97.77 96.39L97.77 96.39L97.77 100ZM110.15 100.10L110.15 100.10Q109.19 100.10 108.44 99.65Q107.68 99.21 107.24 98.37Q106.80 97.54 106.80 96.37L106.80 96.37Q106.80 95.19 107.24 94.35Q107.68 93.52 108.44 93.07Q109.19 92.63 110.15 92.63L110.15 92.63Q111.10 92.63 111.86 93.07Q112.61 93.52 113.05 94.35Q113.48 95.19 113.48 96.37L113.48 96.37Q113.48 97.54 113.05 98.38Q112.61 99.21 111.86 99.66Q111.10 100.10 110.15 100.10ZM110.15 98.93L110.15 98.93Q110.74 98.93 111.20 98.64Q111.65 98.34 111.91 97.77Q112.17 97.19 112.17 96.37L112.17 96.37Q112.17 95.53 111.91 94.96Q111.65 94.38 111.20 94.09Q110.74 93.79 110.15 93.79L110.15 93.79Q109.55 93.79 109.09 94.09Q108.64 94.39 108.37 94.96Q108.11 95.54 108.11 96.37L108.11 96.37Q108.11 97.19 108.37 97.76Q108.64 98.33 109.09 98.63Q109.55 98.93 110.15 98.93ZM122.24 100L117.72 100L117.72 92.72L119.02 92.72L119.02 98.90L122.24 98.90L122.24 100ZM126.37 92.72L127.68 92.72L127.68 100L126.37 100L126.37 92.72ZM133.08 100L131.65 100L134.19 92.72L135.85 92.72L138.45 100L137.02 100L136.40 98.20L133.68 98.20L133.08 100ZM134.02 97.15L136.04 97.15L135.72 96.22Q135.53 95.63 135.33 94.89L135.33 94.89Q135.18 94.37 135.01 93.74L135.01 93.74Q134.85 94.38 134.71 94.91L134.71 94.91Q134.51 95.65 134.33 96.22L134.33 96.22L134.02 97.15ZM148.88 100L147.45 100L149.99 92.72L151.64 92.72L154.24 100L152.81 100L152.20 98.20L149.47 98.20L148.88 100ZM149.82 97.15L151.83 97.15L151.52 96.22Q151.33 95.63 151.12 94.89L151.12 94.89Q150.97 94.37 150.80 93.74L150.80 93.74Q150.64 94.38 150.50 94.91L150.50 94.91Q150.30 95.65 150.13 96.22L150.13 96.22L149.82 97.15ZM161.97 100L160.32 100L157.72 92.72L159.16 92.72L160.44 96.50Q160.63 97.07 160.83 97.81L160.83 97.81Q160.99 98.33 161.15 98.96L161.15 98.96Q161.32 98.33 161.46 97.80L161.46 97.80Q161.67 97.07 161.84 96.50L161.84 96.50L163.09 92.72L164.52 92.72L161.97 100ZM173.23 100L168.49 100L168.49 92.72L173.21 92.72L173.21 93.82L169.79 93.82L169.79 95.79L172.96 95.79L172.96 96.87L169.79 96.87L169.79 98.90L173.23 98.90L173.23 100Z"></path><path style="fill:#DD550C;" d="M317.34 80.36L317.34 80.36Q313.23 80.36 310.53 78.70Q307.83 77.05 306.48 74.06Q305.13 71.07 305.13 67.08L305.13 67.08Q305.13 63.08 306.48 60.13Q307.83 57.18 310.55 55.54Q313.27 53.90 317.37 53.90L317.37 53.90Q321.30 53.90 324.00 55.54Q326.70 57.18 328.10 60.15Q329.50 63.12 329.50 67.11L329.50 67.11Q329.50 71.11 328.10 74.08Q326.70 77.05 323.98 78.70Q321.26 80.36 317.34 80.36ZM317.34 78.02L317.34 78.02Q319.60 78.02 320.97 76.76Q322.34 75.50 322.93 73.07Q323.53 70.64 323.53 67.11L323.53 67.11Q323.53 63.58 322.93 61.15Q322.34 58.72 320.97 57.48Q319.60 56.24 317.37 56.24L317.37 56.24Q313.99 56.24 312.53 59.01Q311.07 61.78 311.07 67.11L311.07 67.11Q311.07 70.64 311.70 73.07Q312.33 75.50 313.72 76.76Q315.10 78.02 317.34 78.02ZM314.38 70.32L312.51 70.32L312.51 63.44L314.38 63.44L314.56 64.12Q314.67 64.56 314.89 64.88Q315.10 65.20 315.57 65.38Q316.04 65.56 316.94 65.56L316.94 65.56L317.52 65.56Q318.42 65.56 318.94 65.38Q319.46 65.20 319.71 64.86Q319.96 64.52 320.07 64.12L320.07 64.12L320.25 63.44L322.12 63.44L322.12 70.32L320.25 70.32L320.07 69.63Q319.96 69.24 319.71 68.89Q319.46 68.55 318.96 68.37Q318.45 68.19 317.59 68.19L317.59 68.19L316.94 68.19Q316.04 68.19 315.57 68.37Q315.10 68.55 314.89 68.88Q314.67 69.20 314.56 69.63L314.56 69.63L314.38 70.32ZM354.67 80L332.82 80L332.64 71.83L334.83 71.83L334.98 72.91Q335.08 73.63 335.37 74.24Q335.66 74.85 336.29 75.23Q336.92 75.61 338 75.61L338 75.61L349.45 75.61Q350.53 75.61 351.16 75.23Q351.79 74.85 352.09 74.24Q352.40 73.63 352.47 72.91L352.47 72.91L352.62 71.83L354.85 71.83L354.67 80ZM339.40 70.32L337.53 70.32L337.53 63.44L339.40 63.44L339.58 64.12Q339.73 64.63 339.91 65.04Q340.09 65.46 340.61 65.69Q341.13 65.92 342.21 65.92L342.21 65.92L345.27 65.92Q346.71 65.92 347.25 65.40Q347.79 64.88 347.97 64.12L347.97 64.12L348.15 63.44L350.02 63.44L350.02 70.32L348.15 70.32L347.97 69.63Q347.79 68.88 347.25 68.35Q346.71 67.83 345.27 67.83L345.27 67.83L342.21 67.83Q341.13 67.83 340.61 68.07Q340.09 68.30 339.91 68.70Q339.73 69.09 339.58 69.63L339.58 69.63L339.40 70.32ZM335.91 62.04L333.72 62.04L333.90 54.30L353.59 54.30L353.77 62.04L351.54 62.04L351.39 60.96Q351.32 60.24 351.01 59.62Q350.71 59.01 350.08 58.63Q349.45 58.26 348.37 58.26L348.37 58.26L339.08 58.26Q338 58.26 337.37 58.63Q336.74 59.01 336.45 59.62Q336.16 60.24 336.06 60.96L336.06 60.96L335.91 62.04Z"></path><use href="#bz2d-elev" x="44" y="118" width="312" height="73"></use><rect x="28" y="214" width="344" height="58" style="fill:#03244D;"></rect><path style="fill:#FFFFFF;" d="M123.15 226.24L123.15 225.84Q123.65 225.86 124.43 225.88Q125.21 225.90 125.99 225.90L125.99 225.90Q126.97 225.90 127.85 225.88Q128.73 225.86 129.09 225.86L129.09 225.86Q131.45 225.86 132.62 226.74Q133.79 227.62 133.79 229L133.79 229Q133.79 229.70 133.42 230.40Q133.05 231.10 132.24 231.66Q131.43 232.22 130.13 232.50L130.13 232.50L130.13 232.54Q131.89 232.70 132.92 233.25Q133.95 233.80 134.39 234.55Q134.83 235.30 134.83 236.12L134.83 236.12Q134.83 237.34 134.20 238.21Q133.57 239.08 132.39 239.54Q131.21 240 129.55 240L129.55 240Q129.11 240 128.21 239.97Q127.31 239.94 126.03 239.94L126.03 239.94Q125.21 239.94 124.43 239.95Q123.65 239.96 123.15 240L123.15 240L123.15 239.60Q123.81 239.56 124.14 239.44Q124.47 239.32 124.58 238.96Q124.69 238.60 124.69 237.88L124.69 237.88L124.69 227.96Q124.69 227.22 124.58 226.87Q124.47 226.52 124.14 226.39Q123.81 226.26 123.15 226.24L123.15 226.24ZM128.55 232.82L127.43 232.82L127.43 237.88Q127.43 238.58 127.55 238.94Q127.67 239.30 127.97 239.42Q128.27 239.54 128.85 239.54L128.85 239.54Q130.49 239.54 131.22 238.63Q131.95 237.72 131.95 236.04L131.95 236.04Q131.95 234.50 131.16 233.66Q130.37 232.82 128.55 232.82L128.55 232.82ZM128.75 226.24L128.75 226.24Q127.93 226.24 127.68 226.58Q127.43 226.92 127.43 227.96L127.43 227.96L127.43 232.48L128.45 232.48Q129.47 232.48 130.03 232.03Q130.59 231.58 130.79 230.83Q130.99 230.08 130.99 229.22L130.99 229.22Q130.99 227.74 130.47 226.99Q129.95 226.24 128.75 226.24ZM152.71 225.84L152.71 225.84Q152.63 226.66 152.60 227.43Q152.57 228.20 152.57 228.60L152.57 228.60Q152.57 228.98 152.59 229.33Q152.61 229.68 152.63 229.92L152.63 229.92L152.17 229.92Q152.01 228.54 151.65 227.75Q151.29 226.96 150.68 226.63Q150.07 226.30 149.09 226.30L149.09 226.30L147.99 226.30Q147.39 226.30 147.07 226.40Q146.75 226.50 146.64 226.82Q146.53 227.14 146.53 227.80L146.53 227.80L146.53 232.68L147.41 232.68Q148.03 232.68 148.42 232.42Q148.81 232.16 149.05 231.75Q149.29 231.34 149.42 230.89Q149.55 230.44 149.61 230.04L149.61 230.04L150.07 230.04Q149.99 231.18 150 231.78Q150.01 232.38 150.01 232.88Q150.01 233.38 150.03 233.98Q150.05 234.58 150.13 235.72L150.13 235.72L149.67 235.72Q149.57 235.04 149.36 234.43Q149.15 233.82 148.70 233.45Q148.25 233.08 147.41 233.08L147.41 233.08L146.53 233.08L146.53 238.04Q146.53 238.68 146.64 239.01Q146.75 239.34 147.07 239.44Q147.39 239.54 147.99 239.54L147.99 239.54L149.13 239.54Q150.15 239.54 150.84 239.16Q151.53 238.78 151.95 237.91Q152.37 237.04 152.57 235.52L152.57 235.52L153.03 235.52Q152.97 236.14 152.97 237.12L152.97 237.12Q152.97 237.54 153 238.34Q153.03 239.14 153.11 240L153.11 240Q152.09 239.96 150.81 239.95Q149.53 239.94 148.53 239.94L148.53 239.94L147.33 239.94Q146.57 239.94 145.70 239.95Q144.83 239.96 143.94 239.97Q143.05 239.98 142.25 240L142.25 240L142.25 239.60Q142.91 239.56 143.24 239.44Q143.57 239.32 143.68 238.96Q143.79 238.60 143.79 237.88L143.79 237.88L143.79 227.96Q143.79 227.22 143.68 226.87Q143.57 226.52 143.24 226.39Q142.91 226.26 142.25 226.24L142.25 226.24L142.25 225.84Q143.05 225.86 143.94 225.87Q144.83 225.88 145.70 225.89Q146.57 225.90 147.33 225.90L147.33 225.90L148.53 225.90Q149.45 225.90 150.62 225.89Q151.79 225.88 152.71 225.84ZM172.55 225.84L172.55 225.84Q172.47 226.76 172.44 227.63Q172.41 228.50 172.41 228.96Q172.41 229.42 172.43 229.82Q172.45 230.22 172.47 230.52L172.47 230.52L172.01 230.52Q171.73 228.92 171.33 228.01Q170.93 227.10 170.28 226.70Q169.63 226.30 168.57 226.30L168.57 226.30L167.93 226.30L167.93 237.70Q167.93 238.52 168.08 238.92Q168.23 239.32 168.69 239.45Q169.15 239.58 170.03 239.60L170.03 239.60L170.03 240Q169.43 239.96 168.47 239.95Q167.51 239.94 166.51 239.94L166.51 239.94Q165.47 239.94 164.56 239.95Q163.65 239.96 163.09 240L163.09 240L163.09 239.60Q163.95 239.58 164.41 239.45Q164.87 239.32 165.03 238.92Q165.19 238.52 165.19 237.70L165.19 237.70L165.19 226.30L164.53 226.30Q163.49 226.30 162.83 226.70Q162.17 227.10 161.77 228.01Q161.37 228.92 161.11 230.52L161.11 230.52L160.65 230.52Q160.69 230.22 160.70 229.82Q160.71 229.42 160.71 228.96Q160.71 228.50 160.68 227.63Q160.65 226.76 160.57 225.84L160.57 225.84Q161.45 225.86 162.51 225.88Q163.57 225.90 164.63 225.90L164.63 225.90L168.49 225.90Q169.55 225.90 170.61 225.88Q171.67 225.86 172.55 225.84ZM186.13 225.78L186.13 225.78L190.99 238.32Q191.29 239.04 191.64 239.31Q191.99 239.58 192.29 239.60L192.29 239.60L192.29 240Q191.77 239.96 191.04 239.95Q190.31 239.94 189.55 239.94L189.55 239.94Q188.67 239.94 187.91 239.95Q187.15 239.96 186.67 240L186.67 240L186.67 239.60Q187.69 239.56 187.97 239.25Q188.25 238.94 187.85 237.92L187.85 237.92L186.63 234.64L182.13 234.64L181.49 236.28Q181.11 237.28 181.03 237.92Q180.95 238.56 181.13 238.92Q181.31 239.28 181.73 239.43Q182.15 239.58 182.77 239.60L182.77 239.60L182.77 240Q182.13 239.96 181.53 239.95Q180.93 239.94 180.33 239.94L180.33 239.94Q179.89 239.94 179.50 239.95Q179.11 239.96 178.81 240L178.81 240L178.81 239.60Q179.25 239.50 179.68 239.08Q180.11 238.66 180.51 237.62L180.51 237.62L185.09 225.78Q185.33 225.80 185.61 225.80Q185.89 225.80 186.13 225.78ZM182.27 234.24L186.49 234.24L184.43 228.68L182.27 234.24ZM220.03 225.84L220.03 225.84L220.03 226.24L212.83 239.54L215.51 239.54Q216.29 239.54 216.94 239.32Q217.59 239.10 218.11 238.63Q218.63 238.16 218.97 237.36Q219.31 236.56 219.41 235.40L219.41 235.40L219.87 235.40Q219.81 236.06 219.81 237.12L219.81 237.12Q219.81 237.54 219.84 238.34Q219.87 239.14 219.95 240L219.95 240Q219.21 239.96 218.33 239.95Q217.45 239.94 216.59 239.94L216.59 239.94L214.97 239.94Q213.73 239.94 212.35 239.95Q210.97 239.96 209.75 240L209.75 240L209.75 239.60L216.99 226.30L214.25 226.30Q213.45 226.30 212.81 226.50Q212.17 226.70 211.70 227.15Q211.23 227.60 210.93 228.37Q210.63 229.14 210.49 230.28L210.49 230.28L210.03 230.28Q210.07 229.98 210.08 229.58Q210.09 229.18 210.09 228.72L210.09 228.72Q210.09 228.30 210.06 227.50Q210.03 226.70 209.95 225.84L209.95 225.84Q210.65 225.86 211.47 225.88Q212.29 225.90 213.13 225.90L213.13 225.90L214.61 225.90Q215.91 225.90 217.35 225.89Q218.79 225.88 220.03 225.84ZM238.11 225.84L238.11 225.84Q238.03 226.66 238 227.43Q237.97 228.20 237.97 228.60L237.97 228.60Q237.97 228.98 237.99 229.33Q238.01 229.68 238.03 229.92L238.03 229.92L237.57 229.92Q237.41 228.54 237.05 227.75Q236.69 226.96 236.08 226.63Q235.47 226.30 234.49 226.30L234.49 226.30L233.39 226.30Q232.79 226.30 232.47 226.40Q232.15 226.50 232.04 226.82Q231.93 227.14 231.93 227.80L231.93 227.80L231.93 232.68L232.81 232.68Q233.43 232.68 233.82 232.42Q234.21 232.16 234.45 231.75Q234.69 231.34 234.82 230.89Q234.95 230.44 235.01 230.04L235.01 230.04L235.47 230.04Q235.39 231.18 235.40 231.78Q235.41 232.38 235.41 232.88Q235.41 233.38 235.43 233.98Q235.45 234.58 235.53 235.72L235.53 235.72L235.07 235.72Q234.97 235.04 234.76 234.43Q234.55 233.82 234.10 233.45Q233.65 233.08 232.81 233.08L232.81 233.08L231.93 233.08L231.93 238.04Q231.93 238.68 232.04 239.01Q232.15 239.34 232.47 239.44Q232.79 239.54 233.39 239.54L233.39 239.54L234.53 239.54Q235.55 239.54 236.24 239.16Q236.93 238.78 237.35 237.91Q237.77 237.04 237.97 235.52L237.97 235.52L238.43 235.52Q238.37 236.14 238.37 237.12L238.37 237.12Q238.37 237.54 238.40 238.34Q238.43 239.14 238.51 240L238.51 240Q237.49 239.96 236.21 239.95Q234.93 239.94 233.93 239.94L233.93 239.94L232.73 239.94Q231.97 239.94 231.10 239.95Q230.23 239.96 229.34 239.97Q228.45 239.98 227.65 240L227.65 240L227.65 239.60Q228.31 239.56 228.64 239.44Q228.97 239.32 229.08 238.96Q229.19 238.60 229.19 237.88L229.19 237.88L229.19 227.96Q229.19 227.22 229.08 226.87Q228.97 226.52 228.64 226.39Q228.31 226.26 227.65 226.24L227.65 226.24L227.65 225.84Q228.45 225.86 229.34 225.87Q230.23 225.88 231.10 225.89Q231.97 225.90 232.73 225.90L232.73 225.90L233.93 225.90Q234.85 225.90 236.02 225.89Q237.19 225.88 238.11 225.84ZM257.95 225.84L257.95 225.84Q257.87 226.76 257.84 227.63Q257.81 228.50 257.81 228.96Q257.81 229.42 257.83 229.82Q257.85 230.22 257.87 230.52L257.87 230.52L257.41 230.52Q257.13 228.92 256.73 228.01Q256.33 227.10 255.68 226.70Q255.03 226.30 253.97 226.30L253.97 226.30L253.33 226.30L253.33 237.70Q253.33 238.52 253.48 238.92Q253.63 239.32 254.09 239.45Q254.55 239.58 255.43 239.60L255.43 239.60L255.43 240Q254.83 239.96 253.87 239.95Q252.91 239.94 251.91 239.94L251.91 239.94Q250.87 239.94 249.96 239.95Q249.05 239.96 248.49 240L248.49 240L248.49 239.60Q249.35 239.58 249.81 239.45Q250.27 239.32 250.43 238.92Q250.59 238.52 250.59 237.70L250.59 237.70L250.59 226.30L249.93 226.30Q248.89 226.30 248.23 226.70Q247.57 227.10 247.17 228.01Q246.77 228.92 246.51 230.52L246.51 230.52L246.05 230.52Q246.09 230.22 246.10 229.82Q246.11 229.42 246.11 228.96Q246.11 228.50 246.08 227.63Q246.05 226.76 245.97 225.84L245.97 225.84Q246.85 225.86 247.91 225.88Q248.97 225.90 250.03 225.90L250.03 225.90L253.89 225.90Q254.95 225.90 256.01 225.88Q257.07 225.86 257.95 225.84ZM271.53 225.78L271.53 225.78L276.39 238.32Q276.69 239.04 277.04 239.31Q277.39 239.58 277.69 239.60L277.69 239.60L277.69 240Q277.17 239.96 276.44 239.95Q275.71 239.94 274.95 239.94L274.95 239.94Q274.07 239.94 273.31 239.95Q272.55 239.96 272.07 240L272.07 240L272.07 239.60Q273.09 239.56 273.37 239.25Q273.65 238.94 273.25 237.92L273.25 237.92L272.03 234.64L267.53 234.64L266.89 236.28Q266.51 237.28 266.43 237.92Q266.35 238.56 266.53 238.92Q266.71 239.28 267.13 239.43Q267.55 239.58 268.17 239.60L268.17 239.60L268.17 240Q267.53 239.96 266.93 239.95Q266.33 239.94 265.73 239.94L265.73 239.94Q265.29 239.94 264.90 239.95Q264.51 239.96 264.21 240L264.21 240L264.21 239.60Q264.65 239.50 265.08 239.08Q265.51 238.66 265.91 237.62L265.91 237.62L270.49 225.78Q270.73 225.80 271.01 225.80Q271.29 225.80 271.53 225.78ZM267.67 234.24L271.89 234.24L269.83 228.68L267.67 234.24Z"></path><path style="fill:#FFFFFF;" d="M124.28 259L122.86 259L125.40 251.72L127.05 251.72L129.65 259L128.22 259L127.60 257.20L124.88 257.20L124.28 259ZM125.23 256.15L127.24 256.15L126.92 255.22Q126.73 254.63 126.53 253.89L126.53 253.89Q126.38 253.37 126.21 252.74L126.21 252.74Q126.05 253.38 125.91 253.91L125.91 253.91Q125.71 254.65 125.53 255.22L125.53 255.22L125.23 256.15ZM137.57 259.11L137.57 259.11Q136.68 259.11 136.02 258.77Q135.35 258.44 134.99 257.85Q134.62 257.25 134.62 256.48L134.62 256.48L134.62 251.72L135.92 251.72L135.92 256.37Q135.92 256.82 136.13 257.18Q136.33 257.54 136.70 257.74Q137.07 257.94 137.57 257.94L137.57 257.94Q138.07 257.94 138.44 257.74Q138.81 257.54 139.01 257.18Q139.22 256.82 139.22 256.37L139.22 256.37L139.22 251.72L140.52 251.72L140.52 256.48Q140.52 257.25 140.15 257.85Q139.78 258.44 139.12 258.77Q138.46 259.11 137.57 259.11ZM148.91 259L145.98 259L145.98 251.72L148.76 251.72Q149.55 251.72 150.07 251.97Q150.59 252.22 150.85 252.65Q151.11 253.07 151.11 253.61L151.11 253.61Q151.11 254.06 150.94 254.37Q150.77 254.69 150.48 254.88Q150.20 255.08 149.84 255.16L149.84 255.16L149.84 255.24Q150.23 255.25 150.58 255.47Q150.94 255.68 151.17 256.08Q151.39 256.47 151.39 257.02L151.39 257.02Q151.39 257.58 151.12 258.03Q150.85 258.48 150.30 258.74Q149.75 259 148.91 259L148.91 259ZM147.28 255.77L147.28 257.91L148.71 257.91Q149.43 257.91 149.75 257.63Q150.07 257.35 150.07 256.92L150.07 256.92Q150.07 256.59 149.91 256.33Q149.75 256.07 149.45 255.92Q149.16 255.77 148.75 255.77L148.75 255.77L147.28 255.77ZM147.28 252.81L147.28 254.83L148.60 254.83Q148.94 254.83 149.22 254.70Q149.49 254.57 149.65 254.34Q149.81 254.10 149.81 253.78L149.81 253.78Q149.81 253.36 149.51 253.08Q149.21 252.81 148.63 252.81L148.63 252.81L147.28 252.81ZM159.52 259.11L159.52 259.11Q158.63 259.11 157.97 258.77Q157.30 258.44 156.94 257.85Q156.57 257.25 156.57 256.48L156.57 256.48L156.57 251.72L157.87 251.72L157.87 256.37Q157.87 256.82 158.08 257.18Q158.28 257.54 158.65 257.74Q159.02 257.94 159.52 257.94L159.52 257.94Q160.02 257.94 160.39 257.74Q160.76 257.54 160.96 257.18Q161.17 256.82 161.17 256.37L161.17 256.37L161.17 251.72L162.47 251.72L162.47 256.48Q162.47 257.25 162.10 257.85Q161.73 258.44 161.07 258.77Q160.41 259.11 159.52 259.11ZM169.23 259L167.93 259L167.93 251.72L170.65 251.72Q171.48 251.72 172.06 252.02Q172.63 252.31 172.92 252.84Q173.21 253.36 173.21 254.05Q173.21 254.75 172.92 255.26Q172.62 255.77 172.05 256.05L172.05 256.05Q171.98 256.08 171.90 256.11L171.90 256.11L173.48 259L172.02 259L170.59 256.33L169.23 256.33L169.23 259ZM169.23 252.82L169.23 255.25L170.46 255.25Q170.95 255.25 171.26 255.11Q171.58 254.97 171.73 254.70Q171.88 254.43 171.88 254.05L171.88 254.05Q171.88 253.66 171.73 253.39Q171.58 253.11 171.26 252.96Q170.95 252.82 170.45 252.82L170.45 252.82L169.23 252.82ZM179.78 259L178.45 259L178.45 251.72L179.93 251.72L182.44 255.73Q182.60 255.98 182.77 256.30Q182.95 256.61 183.14 257.00L183.14 257.00Q183.24 257.20 183.34 257.42L183.34 257.42Q183.32 257.22 183.31 257.02L183.31 257.02Q183.28 256.59 183.27 256.20Q183.26 255.81 183.26 255.54L183.26 255.54L183.26 251.72L184.58 251.72L184.58 259L183.10 259L180.83 255.39Q180.62 255.04 180.43 254.71Q180.23 254.37 180.02 253.95L180.02 253.95Q179.87 253.67 179.69 253.32L179.69 253.32Q179.71 253.63 179.72 253.93L179.72 253.93Q179.75 254.41 179.76 254.78Q179.78 255.16 179.78 255.39L179.78 255.39L179.78 259ZM190.80 260.87L189.91 260.87L190.34 257.93L191.65 257.93L190.80 260.87ZM204.49 259L203.06 259L205.60 251.72L207.25 251.72L209.85 259L208.42 259L207.81 257.20L205.08 257.20L204.49 259ZM205.43 256.15L207.44 256.15L207.13 255.22Q206.94 254.63 206.73 253.89L206.73 253.89Q206.59 253.37 206.41 252.74L206.41 252.74Q206.25 253.38 206.11 253.91L206.11 253.91Q205.91 254.65 205.74 255.22L205.74 255.22L205.43 256.15ZM219.34 259L214.82 259L214.82 251.72L216.13 251.72L216.13 257.90L219.34 257.90L219.34 259ZM225.42 259L223.99 259L226.53 251.72L228.18 251.72L230.78 259L229.35 259L228.74 257.20L226.01 257.20L225.42 259ZM226.36 256.15L228.37 256.15L228.06 255.22Q227.87 254.63 227.66 253.89L227.66 253.89Q227.52 253.37 227.34 252.74L227.34 252.74Q227.18 253.38 227.04 253.91L227.04 253.91Q226.84 254.65 226.67 255.22L226.67 255.22L226.36 256.15ZM238.69 259L235.75 259L235.75 251.72L238.54 251.72Q239.32 251.72 239.85 251.97Q240.37 252.22 240.63 252.65Q240.89 253.07 240.89 253.61L240.89 253.61Q240.89 254.06 240.71 254.37Q240.54 254.69 240.26 254.88Q239.97 255.08 239.62 255.16L239.62 255.16L239.62 255.24Q240.00 255.25 240.36 255.47Q240.71 255.68 240.94 256.08Q241.17 256.47 241.17 257.02L241.17 257.02Q241.17 257.58 240.90 258.03Q240.62 258.48 240.07 258.74Q239.52 259 238.69 259L238.69 259ZM237.06 255.77L237.06 257.91L238.48 257.91Q239.21 257.91 239.53 257.63Q239.85 257.35 239.85 256.92L239.85 256.92Q239.85 256.59 239.68 256.33Q239.52 256.07 239.23 255.92Q238.93 255.77 238.53 255.77L238.53 255.77L237.06 255.77ZM237.06 252.81L237.06 254.83L238.37 254.83Q238.72 254.83 238.99 254.70Q239.26 254.57 239.42 254.34Q239.58 254.10 239.58 253.78L239.58 253.78Q239.58 253.36 239.28 253.08Q238.99 252.81 238.40 252.81L238.40 252.81L237.06 252.81ZM247.28 259L245.86 259L248.40 251.72L250.05 251.72L252.65 259L251.22 259L250.60 257.20L247.88 257.20L247.28 259ZM248.23 256.15L250.24 256.15L249.92 255.22Q249.73 254.63 249.53 253.89L249.53 253.89Q249.38 253.37 249.21 252.74L249.21 252.74Q249.05 253.38 248.91 253.91L248.91 253.91Q248.71 254.65 248.53 255.22L248.53 255.22L248.23 256.15ZM258.90 259L257.62 259L257.62 251.72L259.58 251.72L260.97 255.48Q261.04 255.69 261.13 256.02Q261.22 256.35 261.31 256.73Q261.41 257.11 261.50 257.47L261.50 257.47Q261.50 257.50 261.51 257.53L261.51 257.53Q261.51 257.51 261.52 257.48L261.52 257.48Q261.60 257.13 261.70 256.74Q261.80 256.36 261.89 256.03Q261.98 255.69 262.04 255.48L262.04 255.48L263.41 251.72L265.38 251.72L265.38 259L264.08 259L264.08 255.33Q264.08 255.09 264.09 254.76Q264.09 254.43 264.10 254.05Q264.11 253.67 264.12 253.28L264.12 253.28Q264.12 253.09 264.12 252.91L264.12 252.91Q264.07 253.12 264.01 253.33L264.01 253.33Q263.90 253.73 263.78 254.11Q263.67 254.49 263.57 254.81Q263.47 255.12 263.40 255.33L263.40 255.33L262.05 259L260.95 259L259.58 255.33Q259.51 255.12 259.41 254.81Q259.31 254.50 259.20 254.13Q259.08 253.75 258.97 253.34L258.97 253.34Q258.91 253.14 258.86 252.95L258.86 252.95Q258.86 253.09 258.86 253.25L258.86 253.25Q258.87 253.63 258.88 254.02Q258.89 254.41 258.89 254.74Q258.90 255.08 258.90 255.33L258.90 255.33L258.90 259ZM271.78 259L270.36 259L272.90 251.72L274.55 251.72L277.15 259L275.72 259L275.10 257.20L272.38 257.20L271.78 259ZM272.72 256.15L274.74 256.15L274.42 255.22Q274.23 254.63 274.03 253.89L274.03 253.89Q273.88 253.37 273.71 252.74L273.71 252.74Q273.55 253.38 273.41 253.91L273.41 253.91Q273.21 254.65 273.03 255.22L273.03 255.22L272.72 256.15Z"></path></symbol></defs><use href="#bz2d-stamp" width="400" height="300"></use></svg>